<svg xmlns="http://www.w3.org/2000/svg" viewBox="0 0 449.444 61.774"><defs><style>.cls-1{isolation:isolate;}.cls-2{mix-blend-mode:multiply;}.cls-3{fill:#89847e;}</style></defs><g class="cls-1"><g id="Capa_1" data-name="Capa 1"><g class="cls-2"><path class="cls-3" d="M88.912,61.389C86.194,61.124,77.441,60,78.5,48.792c.8-7.957,6.166-18.234,10.475-28.047,5.3-12.2-2.055-11.536-13.99,3.382C70.811,29.3,59.539,46.737,57.152,52.505c-2.519,5.835-7.294,3.248-6.034,1.326A100.413,100.413,0,0,0,64.312,15.309c1.062-8.554-4.574-8.09-9.812-1.591-11.536,14.321-14.853,22.344-23.935,42.5-1.061,2.453-6.1,2.519-5.438.4,5.636-8.752,14.653-31.295,16.179-42.1C44.952-11.876,11.8,6.689,5.369,24.325-.2,39.775,8.884,47.068,17.635,43.886c8.487-3.184,14.785-19.693,4.243-18.3-1.193.133-2.851-.994.333-1.392C33.283,22.6,31.89,39.178,17.569,45.145c-9.812,4.044-22.344-5.7-15.714-21.482C11.4,1.384,47.6-11.743,45.151,14.646A56.28,56.28,0,0,1,41.7,27.84c-.863,2.52-.266,2.851.861.729A88.062,88.062,0,0,1,53.373,12.524c5.105-6.166,16.045-8.819,14.984,2.453-.8,8.487-3.779,16.51-6.5,24.8C64.578,35.532,69.551,28.5,74.987,21.74c15.317-19.162,25.262-14.852,17.638.4-5.769,11.471-18.1,38.855-2.652,38.191C92.492,60.2,91.564,61.655,88.912,61.389Z"/><path class="cls-3" d="M104.9,53.964c-2.188.132-5.3-1.591-3.315-8.554a34,34,0,0,1-4.775,6.233c-7.624,7.293-12.663-4.309-2.651-16.311,3.978-4.708,11.6-7.16,15.382-3.05.928,1,.4,2.121-.729,1.923-.73-2.453-3.182-2.984-5.636-1.657-2.983,1.657-6.431,5.569-8.818,9.481a23.691,23.691,0,0,0-2.718,6.7c-.664,4.641,2.984,4.111,6.1.4a53.712,53.712,0,0,0,5.9-9.282c1.459-2.785,2.387-4.376,4.509-4.244a9.7,9.7,0,0,0,2.784.266c-1.392,1.393-5.3,8.354-6.166,12.4-.53,2.718-.2,3.978.663,3.978,2.785.133,7.161-8.289,8.554-11.139.6-1.194,1.591-.8.928.53C112.919,45.675,108.874,53.632,104.9,53.964Z"/><path class="cls-3" d="M122.467,53.765c-2.254.53-6.3-1.459-3.647-8.355,1-2.718,3.381-6.166,4.111-7.823.928-2.188-1.393-3.051-5.105-3.117l-.8,2.122c-1.591,4.177-4.773,11.537-8.022,14.654-.53.464-.927-.266-.53-.863,5.237-6.9,8.885-16.908,10.211-24.334.662-3.712,4.973-2.055,4.044,2.387-.4,1.857-2.519,3.648-3.646,4.443a63.181,63.181,0,0,0,9.15-.265c.464.928-.6,3.448-1.393,5.105-.994,2.056-7.757,14.189-3.779,14.388,2.718.066,6.829-8.221,8.221-11.072.6-1.128,1.458-.664.8.663C130.158,45.675,126.776,52.7,122.467,53.765Z"/><path class="cls-3" d="M133.473,52.373a4.338,4.338,0,0,0,2.984-1.26c2.188-2.188,4.376-6.3,6.233-10.012.53-1.194,1.458-.73.862.6-1.724,3.712-5.5,12.133-10.41,12.133-4.972,0-4.972-5.172-3.581-8.62L133.806,34.4a2.86,2.86,0,0,0-.664-2.783l3.646-.067c2.123,0,2.123.729,1.393,2.32l-5.3,12.4s-.664,1.459-.8,1.923C131.485,50.383,131.618,52.24,133.473,52.373Zm4.775-23.538a2.282,2.282,0,0,1-2.321-2.719,3.381,3.381,0,0,1,3.182-2.719,2.252,2.252,0,0,1,2.321,2.719A3.325,3.325,0,0,1,138.248,28.835Z"/><path class="cls-3" d="M156.88,53.964c-2.188.132-5.305-1.591-3.315-8.554a34.048,34.048,0,0,1-4.775,6.233c-7.624,7.293-12.663-4.309-2.651-16.311,3.978-4.708,11.6-7.16,15.381-3.05.929,1,.4,2.121-.728,1.923-.73-2.453-3.183-2.984-5.636-1.657-2.984,1.657-6.432,5.569-8.819,9.481a23.72,23.72,0,0,0-2.718,6.7c-.664,4.641,2.984,4.111,6.1.4a53.716,53.716,0,0,0,5.9-9.282c1.458-2.785,2.387-4.376,4.509-4.244a9.7,9.7,0,0,0,2.784.266c-1.393,1.393-5.3,8.354-6.166,12.4-.53,2.718-.2,3.978.663,3.978,2.785.133,7.161-8.289,8.553-11.139.6-1.194,1.592-.8.929.53C164.9,45.675,160.857,53.632,156.88,53.964Z"/><path class="cls-3" d="M178.164,54.1c-2.321,0-5.5-1.591-3.515-7.758a34.055,34.055,0,0,1,3.648-6.961c1.591-2.586.4-4.377-4.708.4-2.255,2.055-5.5,5.768-9.217,13.128-.53.928-1.127.994-2.519.994a4.591,4.591,0,0,0-2.254.4c3.182-6.3,5.9-12.6,9.15-18.565,1.724-3.182,2.585-4.31,4.707-4.177a9.671,9.671,0,0,0,2.784.265c-1.988,1.061-5.635,7.691-8.023,12.465a49.224,49.224,0,0,1,5.5-5.967c3.183-2.851,10.012-7.028,12.266-6.232,0,0-7.095,12.464-7.956,17.1-.531,2.719.2,3.316,1.061,3.316,3.448,0,7.691-8.686,9.083-11.47.531-1.194,1.591-.73.928.6C187.115,45.675,183.269,54.1,178.164,54.1Z"/><path class="cls-3" d="M202.3,53.964c-2.188.132-5.305-1.591-3.315-8.554a34,34,0,0,1-4.775,6.233c-7.624,7.293-12.663-4.309-2.651-16.311,3.978-4.708,11.6-7.16,15.381-3.05.929,1,.4,2.121-.728,1.923-.73-2.453-3.182-2.984-5.636-1.657-2.984,1.657-6.432,5.569-8.818,9.481a23.661,23.661,0,0,0-2.718,6.7c-.664,4.641,2.983,4.111,6.1.4a53.716,53.716,0,0,0,5.9-9.282c1.458-2.785,2.387-4.376,4.509-4.244a9.7,9.7,0,0,0,2.784.266c-1.393,1.393-5.3,8.354-6.166,12.4-.53,2.718-.2,3.978.663,3.978,2.785.133,7.161-8.289,8.554-11.139.6-1.194,1.591-.8.928.53C210.321,45.675,206.277,53.632,202.3,53.964Z"/><path class="cls-3" d="M259.123,37.189c7.227,5.967-2.388,19.626-17.041,19.626-23.8,0-21.084-26.655,2.652-29.174a10.583,10.583,0,0,1-1.856-5.968c.2-9.415,11.934-14.586,20.156-14.454,3.647.067,7.956,1.393,7.956,5.836,0,2.519-1.789,4.906-4.044,4.906a3.087,3.087,0,0,1-3.117-3.182,2.98,2.98,0,0,1,3.184-2.984,2.7,2.7,0,0,1,2.188,1.193c.53-2.984-2.056-3.912-4.444-3.978-3.513-.067-8.486,1.591-12.928,5.436-3.05,2.719-6.9,8.687-4.841,13,1.393,0,3.515-.266,5.5-.133,3.847.332,4.444,4.178-.2,4.178a9.723,9.723,0,0,1-6.7-2.918c-15.714,2.321-18.962,27.383-3.514,27.383,9.349,0,15.781-7.69,16.045-12.929.332-7.36-17.769-7.227-19.029.331-.331,2.056.994,4.311,4.377,6.1.729.4.8,1.791,0,1.392-11.6-6.233-8.156-15.78,5.3-15.78h11.735c3.117,0,15.515-3.315,12-8.553-.464-.729.264-1.26.728-.53C277.289,32.017,267.941,37.321,259.123,37.189Zm-11.6-8.819a5.762,5.762,0,0,0,4.774,1.99c3.249,0,2.519-1.724.133-1.924A41.355,41.355,0,0,0,247.519,28.37Z"/><path class="cls-3" d="M363.11,19.373c-7.673-1.257-14.222-5.16-15.479-5.689-4.233,4.829-6.945,12.767-8.8,17.066a82.731,82.731,0,0,0,12.435.4c2.25-.132,2.183.794.133,1.323-2.315.595-9.989.728-13.362.331-4.564,12.37-11.708,28.973-33.074,28.973-15.413,0-25.335-11.642-20.639-26.063a11.767,11.767,0,0,1,6.88-6.879c2.117-.661.728.331-1.257,1.72a11.231,11.231,0,0,0-5.093,7.673c-2.316,12.965,9.657,20.043,19.315,20.44,14.685.661,25.2-11.642,31.486-26.063-2.513,0-11.311-.992-14.42,3.506-.794,1.059-1.389.133-1.058-.595,3.043-6.747,10.054-6.483,16.4-5.358a91.063,91.063,0,0,1,9.591-17.331c-5.623-2.778-11.51-5.358-17.992-6.284-18.059-2.712-26.459,13.891-20.44,17.662,6.681,4.167,13.891-2.117,13.825-3.969.066-1.455,1.918-2.646,1.125-.265-1.919,6.417-10.253,8.8-15.545,5.755-10.981-6.218.4-27.848,22.159-21.7A68.413,68.413,0,0,1,347.036,11.7c.728-.794,2.58-2.911,5.556-2.051,1.72.529,1.456,3.241,0,1.588-1.521-.6-3.042.4-3.969,1.256,4.432,2.316,19.183,7.872,21.7,2.514.926-2.117,1.588-1.323,1.191.331C371.114,18.05,367.608,20.034,363.11,19.373Z"/><path class="cls-3" d="M361.388,53.108c-2.249.53-6.284-1.455-3.638-8.334.992-2.712,3.373-6.152,4.1-7.806.926-2.183-1.389-3.043-5.093-3.109l-.794,2.117c-1.588,4.167-4.763,11.51-8,14.619-.529.463-.926-.265-.529-.86,5.225-6.88,8.863-16.868,10.187-24.277.661-3.7,4.961-2.05,4.035,2.382-.4,1.852-2.514,3.638-3.639,4.432a63.024,63.024,0,0,0,9.129-.265c.463.926-.6,3.44-1.389,5.094-.993,2.05-7.74,14.155-3.771,14.354,2.712.066,6.813-8.2,8.2-11.047.6-1.125,1.455-.661.793.661C369.061,45.038,365.688,52.05,361.388,53.108Z"/><path class="cls-3" d="M384.208,53.307c-2.182.132-5.292-1.588-3.307-8.533a33.925,33.925,0,0,1-4.763,6.218c-7.607,7.276-12.634-4.3-2.646-16.273,3.969-4.7,11.576-7.144,15.347-3.043.926.993.4,2.117-.728,1.919-.728-2.448-3.175-2.977-5.623-1.654-2.976,1.654-6.416,5.556-8.8,9.459a23.711,23.711,0,0,0-2.712,6.681c-.662,4.63,2.976,4.1,6.085.4a53.466,53.466,0,0,0,5.887-9.261c1.456-2.778,2.382-4.366,4.5-4.233a9.661,9.661,0,0,0,2.778.264c-1.389,1.39-5.292,8.335-6.152,12.37-.529,2.712-.2,3.969.661,3.969,2.779.132,7.145-8.269,8.534-11.113.595-1.191,1.587-.794.926.529C392.212,45.038,388.177,52.976,384.208,53.307Z"/><path class="cls-3" d="M405.441,53.439c-2.315,0-5.49-1.587-3.506-7.739a33.974,33.974,0,0,1,3.638-6.946c1.588-2.58.4-4.365-4.7.4-2.249,2.051-5.491,5.755-9.195,13.1-.529.927-1.125.993-2.514.993a4.573,4.573,0,0,0-2.249.4c3.176-6.285,5.887-12.569,9.129-18.522,1.72-3.175,2.58-4.3,4.7-4.167a9.668,9.668,0,0,0,2.779.264c-1.985,1.059-5.623,7.673-8,12.436a48.9,48.9,0,0,1,5.49-5.953c3.175-2.845,9.988-7.012,12.237-6.218,0,0-7.077,12.436-7.938,17.066-.529,2.712.2,3.308,1.059,3.308,3.44,0,7.673-8.666,9.062-11.444.529-1.191,1.588-.728.926.595C414.371,45.038,410.534,53.439,405.441,53.439Z"/><path class="cls-3" d="M420.853,53.439c-10.452,0-7.012-11.907-2.25-18.323,2.448-3.307,5.689-5.226,8.864-5.226,3.308,0,4.9,1.852,4.564,4.565-.264,2.183-2.976,4.961-4.432,3.505a10.245,10.245,0,0,0,2.051-3.373c.6-2.315-.066-3.241-1.323-3.241-2.381,0-5.226,3.043-7.078,5.688-1.19,1.72-3.638,6.284-3.638,10.121,0,2.646,1.059,5.093,3.9,5.093,5.755,0,8.93-6.416,11.576-11.642.6-1.19,1.521-.859.926.463C430.775,47.949,428.129,53.439,420.853,53.439Z"/><path class="cls-3" d="M441.225,50.926a9.457,9.457,0,0,1-5.755,2.249c-5.027-.133-5.755-6.152-3.241-12.039,2.58-6.086,8.07-11.246,12.568-11.113,5.027.066,5.755,6.151,3.241,12.039a25.552,25.552,0,0,1-5.556,7.805Zm2.381-4.3a26.4,26.4,0,0,0,2.051-3.572c2.58-5.424,2.911-10.121.529-10.848-2.844-.794-6.945,3.439-9.393,8.665-2.579,5.424-3.175,10.055-.794,10.782,1.257.331,2.911-.331,4.5-1.654A26.351,26.351,0,0,0,443.606,46.626Z"/></g></g></g></svg>