<svg xmlns="http://www.w3.org/2000/svg" viewBox="0 0 611.39 490.126"><defs><style>.cls-1{isolation:isolate;}.cls-2{mix-blend-mode:multiply;}.cls-3{fill:#89847e;}</style></defs><g class="cls-1"><g id="Capa_1" data-name="Capa 1"><g class="cls-2"><path class="cls-3" d="M255.792,176.613c-7.821-.763-33-4.006-29.948-36.242,2.289-22.891,17.74-52.457,30.139-80.687,15.259-35.1-5.913-33.191-40.248,9.728-12.018,14.878-44.446,65.045-51.313,81.641-7.248,16.786-20.982,9.346-17.357,3.815,3.051-6.295,30.329-47.879,37.959-110.826,3.051-24.607-13.162-23.272-28.232-4.578-33.19,41.2-42.727,64.283-68.86,122.271-3.052,7.057-17.549,7.248-15.642,1.144C88.5,137.7,114.446,72.845,118.833,41.753,129.324-34.166,33.949,19.244,15.447,69.984c-16.023,44.445,10.11,65.427,35.289,56.271C75.152,117.1,93.273,69.6,62.944,73.608c-3.434.382-8.2-2.861.953-4.006,31.855-4.578,27.849,43.11-13.352,60.277-28.231,11.636-64.283-16.4-45.208-61.8C32.805,3.984,136.954-33.784,129.9,42.134c-1.335,12.017-5.151,25.37-9.919,37.96-2.48,7.248-.763,8.2,2.479,2.1,11.064-20.029,17.549-29.757,31.093-46.162,14.688-17.74,46.161-25.369,43.109,7.058-2.289,24.416-10.873,47.5-18.693,71.341,7.82-12.208,22.127-32.428,37.769-51.885C259.8,7.418,288.41,19.816,266.474,63.689c-16.6,33-52.075,111.78-7.63,109.872C266.092,173.18,263.422,177.376,255.792,176.613Z"/><path class="cls-3" d="M301.758,155.249c-6.3.382-15.262-4.578-9.539-24.607-3.052,4.96-8.2,12.59-13.733,17.931-21.937,20.983-36.434-12.4-7.631-46.925,11.445-13.543,33.381-20.6,44.254-8.774,2.67,2.861,1.145,6.1-2.1,5.532-2.1-7.058-9.156-8.584-16.214-4.769-8.584,4.769-18.5,16.023-25.37,27.277-1.525,2.67-6.676,12.018-7.82,19.266-1.908,13.352,8.584,11.826,17.549,1.144,6.676-8.011,12.017-17.358,16.977-26.7,4.2-8.012,6.867-12.59,12.97-12.208,2.481.19,5.342,1.335,8.012.762-4.006,4.006-15.26,24.035-17.74,35.671-1.526,7.82-.573,11.444,1.908,11.444,8.012.382,20.6-23.843,24.607-32.045,1.715-3.434,4.577-2.289,2.67,1.525C324.838,131.405,313.2,154.295,301.758,155.249Z"/><path class="cls-3" d="M352.3,154.677c-6.484,1.526-18.121-4.2-10.49-24.035,2.862-7.82,9.727-17.739,11.826-22.508,2.67-6.3-4-8.775-14.687-8.966l-2.289,6.1c-4.578,12.018-13.735,33.191-23.082,42.156-1.526,1.336-2.67-.763-1.526-2.479,15.069-19.838,25.561-48.641,29.375-70.006,1.909-10.682,14.307-5.913,11.637,6.867-1.144,5.341-7.248,10.492-10.492,12.781a181.879,181.879,0,0,0,26.324-.763c1.336,2.67-1.717,9.919-4.006,14.688-2.861,5.913-22.318,40.82-10.873,41.392,7.821.191,19.647-23.653,23.653-31.855,1.716-3.243,4.2-1.908,2.289,1.907C374.429,131.405,364.7,151.625,352.3,154.677Z"/><path class="cls-3" d="M383.965,150.671c2.861.382,6.486-1.716,8.584-3.624,6.294-6.295,12.589-18.121,17.929-28.8,1.528-3.434,4.2-2.1,2.481,1.716-4.959,10.682-15.832,34.908-29.948,34.908-14.306,0-14.306-14.879-10.3-24.8l12.207-31.092c1.527-3.625-1.143-7.058-1.907-8.012l10.491-.191c6.105,0,6.105,2.1,4.006,6.677l-15.26,35.67s-1.906,4.2-2.289,5.532C378.242,144.949,378.625,150.289,383.965,150.671ZM397.7,82.955c-4.387,0-7.248-3.434-6.676-7.821a9.725,9.725,0,0,1,9.156-7.821,6.478,6.478,0,0,1,6.676,7.821A9.562,9.562,0,0,1,397.7,82.955Z"/><path class="cls-3" d="M451.3,155.249c-6.295.382-15.26-4.578-9.538-24.607-3.052,4.96-8.2,12.59-13.734,17.931-21.935,20.983-36.434-12.4-7.631-46.925,11.446-13.543,33.383-20.6,44.256-8.774,2.67,2.861,1.145,6.1-2.1,5.532-2.1-7.058-9.156-8.584-16.212-4.769-8.584,4.769-18.5,16.023-25.372,27.277-1.525,2.67-6.675,12.018-7.82,19.266-1.906,13.352,8.584,11.826,17.549,1.144,6.678-8.011,12.018-17.358,16.977-26.7,4.2-8.012,6.867-12.59,12.972-12.208,2.479.19,5.34,1.335,8.01.762-4,4.006-15.26,24.035-17.738,35.671-1.528,7.82-.573,11.444,1.906,11.444,8.012.382,20.6-23.843,24.607-32.045,1.717-3.434,4.579-2.289,2.67,1.525C474.379,131.405,462.744,154.295,451.3,155.249Z"/><path class="cls-3" d="M512.527,155.631c-6.676,0-15.832-4.578-10.109-22.318,1.525-4.96,5.15-11.445,10.49-20.029,4.578-7.439,1.144-12.589-13.543,1.145-6.486,5.913-15.832,16.6-26.514,37.768-1.527,2.671-3.244,2.862-7.25,2.862-2.861.19-4.578,0-6.484,1.144,9.156-18.122,16.976-36.243,26.322-53.41,4.961-9.156,7.44-12.4,13.545-12.018,2.479.191,5.34,1.336,8.012.763-5.723,3.053-16.215,22.127-23.082,35.861,3.814-4.768,9.92-12.017,15.832-17.167,9.156-8.2,28.805-20.219,35.289-17.93,0,0-20.41,35.861-22.891,49.213-1.525,7.821.573,9.538,3.053,9.538,9.92,0,22.127-24.989,26.133-33,1.525-3.433,4.578-2.1,2.67,1.716C538.277,131.405,527.215,155.631,512.527,155.631Z"/><path class="cls-3" d="M581.957,155.249c-6.295.382-15.262-4.578-9.539-24.607-3.051,4.96-8.2,12.59-13.733,17.931-21.937,20.983-36.433-12.4-7.631-46.925,11.446-13.543,33.381-20.6,44.254-8.774,2.67,2.861,1.145,6.1-2.1,5.532-2.1-7.058-9.157-8.584-16.215-4.769-8.584,4.769-18.5,16.023-25.369,27.277-1.526,2.67-6.676,12.018-7.821,19.266-1.908,13.352,8.584,11.826,17.549,1.144,6.676-8.011,12.018-17.358,16.977-26.7,4.2-8.012,6.867-12.59,12.97-12.208,2.481.19,5.342,1.335,8.012.762-4.006,4.006-15.26,24.035-17.74,35.671-1.525,7.82-.572,11.444,1.908,11.444,8.012.382,20.6-23.843,24.608-32.045,1.714-3.434,4.576-2.289,2.67,1.525C605.037,131.405,593.4,154.295,581.957,155.249Z"/><path class="cls-3" d="M289.221,367.856c-22.127-3.625-41.011-14.879-44.636-16.4-12.208,13.925-20.028,36.815-25.369,49.214,11.636,1.526,28.04,1.526,35.86,1.144,6.487-.381,6.295,2.289.382,3.815-6.676,1.717-28.8,2.1-38.531.954-13.162,35.67-33.763,83.548-95.375,83.548-44.445,0-73.058-33.572-59.515-75.155,3.434-10.873,14.307-18.122,19.838-19.838,6.105-1.908,2.1.954-3.624,4.96-4.768,3.433-12.4,9.155-14.687,22.127-6.677,37.386,27.849,57.8,55.7,58.941,42.347,1.908,72.676-33.572,90.8-75.155-7.249,0-32.618-2.862-41.584,10.11-2.289,3.051-4,.381-3.052-1.717,8.774-19.457,28.994-18.694,47.307-15.451,8.965-21.936,24.034-45.78,27.658-49.977-16.214-8.011-33.191-15.45-51.884-18.121-52.075-7.821-76.3,40.058-58.942,50.931,19.266,12.017,40.057-6.1,39.867-11.446.19-4.2,5.532-7.63,3.243-.762-5.532,18.5-29.566,25.369-44.826,16.6-31.665-17.931,1.143-80.306,63.9-62.567a197.245,197.245,0,0,1,51.121,22.128c2.1-2.289,7.44-8.393,16.024-5.914,4.959,1.526,4.2,9.347,0,4.578-4.388-1.716-8.775,1.145-11.445,3.624,12.78,6.677,55.317,22.7,62.566,7.249,2.67-6.1,4.578-3.815,3.434.954C312.3,364.041,302.192,369.763,289.221,367.856Z"/><path class="cls-3" d="M284.256,465.138c-6.485,1.526-18.121-4.2-10.491-24.034,2.861-7.821,9.727-17.74,11.826-22.509,2.671-6.294-4.006-8.774-14.687-8.965l-2.29,6.1c-4.578,12.017-13.734,33.191-23.081,42.155-1.526,1.336-2.669-.762-1.526-2.479,15.069-19.838,25.561-48.641,29.376-70.005,1.907-10.683,14.307-5.914,11.636,6.867-1.145,5.341-7.248,10.491-10.491,12.78a181.872,181.872,0,0,0,26.323-.763c1.336,2.67-1.717,9.919-4.006,14.688-2.861,5.913-22.317,40.82-10.872,41.392,7.82.191,19.646-23.652,23.652-31.855,1.717-3.243,4.2-1.907,2.289,1.908C306.383,441.866,296.655,462.086,284.256,465.138Z"/><path class="cls-3" d="M350.063,465.71c-6.3.382-15.261-4.577-9.538-24.606-3.052,4.959-8.2,12.589-13.734,17.93-21.936,20.983-36.433-12.4-7.631-46.924,11.446-13.544,33.382-20.6,44.255-8.775,2.67,2.862,1.145,6.1-2.1,5.532-2.1-7.058-9.157-8.584-16.214-4.769-8.584,4.769-18.5,16.023-25.37,27.277-1.526,2.671-6.676,12.018-7.821,19.266-1.907,13.352,8.584,11.827,17.549,1.144,6.677-8.011,12.018-17.357,16.977-26.7,4.2-8.012,6.867-12.59,12.971-12.208,2.48.19,5.341,1.335,8.011.763-4,4-15.26,24.034-17.739,35.67-1.526,7.821-.572,11.445,1.907,11.445,8.012.382,20.6-23.844,24.608-32.046,1.716-3.434,4.577-2.289,2.669,1.526C373.143,441.866,361.507,464.757,350.063,465.71Z"/><path class="cls-3" d="M411.29,466.092c-6.676,0-15.832-4.578-10.109-22.318,1.525-4.959,5.15-11.445,10.491-20.029,4.578-7.439,1.145-12.589-13.544,1.145-6.485,5.913-15.832,16.6-26.514,37.768-1.526,2.671-3.243,2.862-7.249,2.862-2.861.19-4.578,0-6.485,1.144,9.156-18.121,16.977-36.242,26.323-53.41,4.96-9.156,7.44-12.4,13.544-12.017,2.48.191,5.341,1.335,8.012.763-5.723,3.052-16.214,22.127-23.081,35.861,3.814-4.769,9.919-12.017,15.832-17.168,9.156-8.2,28.8-20.219,35.289-17.93,0,0-20.41,35.861-22.891,49.213-1.525,7.821.573,9.538,3.053,9.538,9.919,0,22.127-24.988,26.133-33,1.525-3.433,4.578-2.1,2.67,1.717C437.041,441.866,425.978,466.092,411.29,466.092Z"/><path class="cls-3" d="M455.733,466.092c-30.139,0-20.22-34.335-6.487-52.838,7.059-9.537,16.406-15.069,25.561-15.069,9.538,0,14.116,5.341,13.162,13.161-.763,6.3-8.584,14.307-12.78,10.11,2.1-2.479,4.96-6.3,5.913-9.728,1.717-6.676-.191-9.347-3.815-9.347-6.867,0-15.069,8.775-20.41,16.405-3.433,4.959-10.491,18.121-10.491,29.185,0,7.63,3.052,14.687,11.254,14.687,16.6,0,25.751-18.5,33.381-33.572,1.717-3.433,4.387-2.479,2.671,1.336C484.345,450.26,476.715,466.092,455.733,466.092Z"/><path class="cls-3" d="M327.734,259.847c18.561,15.325-6.131,50.4-43.764,50.4-61.134,0-54.151-68.455,6.811-74.926A27.19,27.19,0,0,1,286.013,220c.511-24.181,30.653-37.463,51.768-37.123,9.365.171,20.434,3.576,20.434,14.986,0,6.47-4.6,12.6-10.387,12.6a7.926,7.926,0,0,1-8-8.174A7.651,7.651,0,0,1,348,194.626c2.043,0,5.109,1.533,5.619,3.065,1.363-7.663-5.277-10.047-11.408-10.217-9.026-.17-21.8,4.087-33.207,13.963-7.832,6.982-17.71,22.309-12.43,33.377,3.574,0,9.023-.681,14.133-.34,9.877.851,11.41,10.728-.51,10.728-7.494,0-13.623-3.917-17.2-7.493-40.358,5.96-48.7,70.329-9.025,70.329,24.01,0,40.528-19.753,41.209-33.207.852-18.9-45.637-18.561-48.872.852-.852,5.279,2.555,11.068,11.239,15.666,1.873,1.023,2.043,4.6,0,3.576C257.745,278.919,266.6,254.4,301.17,254.4h30.14c8,0,39.848-8.514,30.823-21.967-1.194-1.873.679-3.235,1.873-1.362C374.392,246.564,350.383,260.187,327.734,259.847Zm-29.8-22.649c2.555,3.236,6.641,5.109,12.262,5.109,8.344,0,6.471-4.428.34-4.938A104.618,104.618,0,0,0,297.933,237.2Z"/></g><path class="cls-3" d="M514.481,458.844c-5.341,4-11.064,6.676-16.595,6.485-14.5-.381-16.6-17.74-9.347-34.716,7.44-17.55,23.272-32.428,36.242-32.047,14.5.191,16.6,17.74,9.347,34.717a73.718,73.718,0,0,1-16.022,22.508Zm6.867-12.4a76.419,76.419,0,0,0,5.913-10.3c7.439-15.641,8.394-29.185,1.526-31.283-8.2-2.289-20.028,9.919-27.087,24.988-7.438,15.642-9.155,29-2.289,31.093,3.625.953,8.394-.954,12.972-4.769A75.978,75.978,0,0,0,521.348,446.445Z"/></g></g></svg>